<?xml version="1.0" encoding="utf-8"?>
<!-- Generator: Adobe Illustrator 24.1.1, SVG Export Plug-In . SVG Version: 6.00 Build 0)  -->
<svg version="1.1" id="Capa_1" xmlns="http://www.w3.org/2000/svg" xmlns:xlink="http://www.w3.org/1999/xlink" x="0px" y="0px"
	 viewBox="0 0 56 56" style="enable-background:new 0 0 56 56;" xml:space="preserve">
<style type="text/css">
	.st0{fill:#E9E9E0;}
	.st1{fill:#D9D7CA;}
	.st2{fill:#FFFF33;}
</style>
<g>
	<path class="st0" d="M37,0H8C7.2,0,6.5,0.7,6.5,1.9V55c0,0.3,0.7,1,1.5,1H48c0.8,0,1.5-0.7,1.5-1V13c0-0.7-0.1-0.9-0.3-1.1
		L37.6,0.3C37.4,0.1,37.2,0,37,0z"/>
	<polygon class="st1" points="37.5,0.2 37.5,12 49.3,12 	"/>
	<path class="st2" d="M48,56H8c-0.8,0-1.5-0.7-1.5-1.5V39h43v15.5C49.5,55.3,48.8,56,48,56z"/>
	<g>
		<path class="st2" d="M19.5,19v-4c0-0.6,0.4-1,1-1c0.6,0,1-0.4,1-1s-0.4-1-1-1c-1.7,0-3,1.3-3,3v4c0,1.1-0.9,2-2,2
			c-0.6,0-1,0.4-1,1s0.4,1,1,1c1.1,0,2,0.9,2,2v4c0,1.7,1.3,3,3,3c0.6,0,1-0.4,1-1s-0.4-1-1-1c-0.6,0-1-0.4-1-1v-4
			c0-1.2-0.5-2.3-1.4-3C19,21.3,19.5,20.2,19.5,19z"/>
		<path class="st2" d="M39.5,21c-1.1,0-2-0.9-2-2v-4c0-1.7-1.3-3-3-3c-0.6,0-1,0.4-1,1s0.4,1,1,1c0.6,0,1,0.4,1,1v4
			c0,1.2,0.5,2.3,1.4,3c-0.8,0.7-1.4,1.8-1.4,3v4c0,0.6-0.4,1-1,1c-0.6,0-1,0.4-1,1s0.4,1,1,1c1.7,0,3-1.3,3-3v-4c0-1.1,0.9-2,2-2
			c0.6,0,1-0.4,1-1S40.1,21,39.5,21z"/>
	</g>
	<g>
		<g>
			<path d="M21.8,51.4c-0.4-0.2-0.7-0.4-0.9-0.8l1-0.7c0.1,0.2,0.3,0.3,0.5,0.4s0.4,0.2,0.7,0.2c0.5,0,0.8-0.1,1.1-0.4
				s0.4-0.7,0.4-1.2v-5.8h1.2v5.8c0,0.6-0.1,1.1-0.3,1.5s-0.5,0.7-0.9,1s-0.9,0.3-1.4,0.3C22.6,51.7,22.2,51.6,21.8,51.4z"/>
			<path d="M28.8,51.6c-0.3-0.1-0.6-0.2-0.9-0.3s-0.5-0.3-0.8-0.5l0.7-0.9c0.3,0.3,0.7,0.4,1,0.6c0.3,0.1,0.6,0.2,1,0.2
				c0.5,0,0.8-0.1,1.1-0.2s0.4-0.4,0.4-0.7c0-0.2-0.1-0.3-0.2-0.4s-0.3-0.2-0.5-0.2S30.1,49,29.8,49c0,0-0.1,0-0.1,0s-0.1,0-0.1,0
				c0,0,0,0,0,0s0,0,0,0c-0.4,0-0.7-0.1-1-0.2s-0.5-0.2-0.7-0.5s-0.3-0.6-0.3-1s0.1-0.8,0.3-1.1s0.4-0.5,0.8-0.6s0.8-0.2,1.3-0.2
				c0.3,0,0.6,0,0.9,0.1s0.6,0.1,0.8,0.3s0.5,0.3,0.8,0.4l-0.7,0.9c-0.3-0.2-0.6-0.3-0.9-0.4s-0.6-0.1-0.9-0.1
				c-0.4,0-0.7,0.1-0.9,0.2c-0.2,0.1-0.3,0.3-0.3,0.6c0,0.2,0.1,0.3,0.2,0.4s0.3,0.1,0.4,0.2s0.4,0.1,0.8,0.1c0,0,0,0,0.1,0
				s0.1,0,0.1,0c0,0,0,0,0,0s0,0,0,0c0.4,0,0.8,0.1,1.1,0.2s0.5,0.3,0.8,0.5s0.3,0.6,0.3,1.1c0,0.4-0.1,0.8-0.3,1.1
				s-0.5,0.5-0.8,0.6s-0.9,0.2-1.4,0.2C29.5,51.7,29.1,51.6,28.8,51.6z"/>
		</g>
	</g>
	<g>
		<rect x="22.8" y="21.6" width="1.5" height="1.5"/>
		<rect x="25.3" y="21.6" width="1.5" height="1.5"/>
		<rect x="27.9" y="21.6" width="1.5" height="1.5"/>
		<rect x="30.7" y="21.6" width="1.5" height="1.5"/>
	</g>
</g>
</svg>
