<svg xmlns="http://www.w3.org/2000/svg" viewBox="0 0 661.81 494.94"><defs><style>.cls-1{fill:#4527a0;}.cls-2{fill:#7e57c2;}.cls-3{fill:#fff;stroke:#000;stroke-miterlimit:10;}</style></defs><g id="Layer_2" data-name="Layer 2"><g id="Layer_1-2" data-name="Layer 1"><g id="m"><path class="cls-1" d="M224.49,47.92V64.78L178.3,114.89l-49.66-53V47.92a47.93,47.93,0,0,1,95.85,0Z"/><path class="cls-2" d="M353.13,67V447a47.92,47.92,0,1,1-95.84,0V189.67l-32.8,35.58V447a47.93,47.93,0,1,1-95.85,0V221.15l-32.79-35V447A47.93,47.93,0,1,1,0,447V67A47.63,47.63,0,0,1,8.31,40a47.93,47.93,0,0,1,75.45-7.05l44.88,47.94,49.66,53.06,46.19-50.11,45.12-48.95.06-.06.3-.33c.25-.28.52-.56.78-.83h0a4.11,4.11,0,0,0,.29-.3l.55-.54c.1-.11.21-.22.32-.32l0,0,.52-.49c.23-.23.47-.44.71-.66,0,0,0,0,.05,0l.61-.53c.28-.25.58-.5.87-.74l.89-.71c.3-.25.62-.48.93-.72l.93-.68.95-.65c.3-.21.61-.41.92-.61,0,0,0,0,.06,0l.89-.56.13-.08.85-.5.13-.07c.32-.19.64-.36,1-.54s.61-.33.92-.49l.91-.46.56-.27.66-.31.25-.1c.29-.14.59-.26.89-.39l.92-.38.7-.26c.25-.11.51-.2.76-.29s.52-.18.78-.27.77-.26,1.16-.38l.58-.18.59-.17,1.17-.32h0l1.83-.43.82-.17.89-.16c.54-.1,1.09-.19,1.64-.27l.76-.1.9-.1.74-.08.31,0,.75-.06.92-.05c.8,0,1.61-.07,2.42-.07l1.22,0,1,0,.56,0,.64,0,.58,0,.52,0,.88.09,1.08.14,1.08.16c.36.06.72.11,1.08.18.71.13,1.42.28,2.13.44l1.08.27,1.06.28,1.05.31.48.15.57.18.47.16.46.16.21.08.95.35.46.17.46.19,1.16.49h0l.87.4h0l.18.08.64.3.75.38.15.08c.33.16.65.33,1,.51l.79.43c.34.2.68.39,1,.6s.53.31.78.48l.59.37h0c.43.28.86.57,1.28.87.22.14.44.3.65.45s.52.38.78.58l.72.55.76.6.43.36c.39.33.78.66,1.17,1l.09.07.57.52.82.78h0l.3.29.55.54.32.33,0,0c.17.17.33.34.49.52s.44.46.65.7l.05.06.54.61c.25.28.49.58.74.87s.49.6.72.9.47.61.7.91.46.62.68.94.44.63.66,1l.64,1,.61,1,.59,1c.37.67.74,1.34,1.09,2,.14.27.27.54.4.81l.3.6s0,.09.05.13l.09.18.3.66a.08.08,0,0,0,0,.05c.11.25.22.51.32.76s.26.61.39.92a0,0,0,0,0,0,0c.09.22.17.44.25.67s.14.37.21.55c.27.74.52,1.48.76,2.23h0c.23.74.44,1.5.64,2.25v0c.13.49.24,1,.35,1.47s.21,1,.31,1.49.18,1,.26,1.48.15,1,.22,1.5c0,.3.07.61.1.9s.05.5.07.74l0,.31.06.77c0,.3,0,.6.05.9C353.11,65.37,353.13,66.18,353.13,67Z"/></g><path class="cls-1" d="M529.93,133.45a38.07,38.07,0,1,1-11.15-26.92A37.93,37.93,0,0,1,529.93,133.45Z"/><path class="cls-1" d="M632.57,487a43.74,43.74,0,0,1-55.79-26.73L512.65,278.14V266.75a104.49,104.49,0,0,0,74.91-39.31l71.75,203.71A43.75,43.75,0,0,1,632.57,487Z"/><path class="cls-3" d="M510.18,197.26c1-.29,1.94-.58,2.89-.91C512.12,196.68,511.15,197,510.18,197.26Z"/><path class="cls-2" d="M605.8,113.23A115.71,115.71,0,1,0,378,154.12v280a60.81,60.81,0,0,0,121.62,0V248.87A115.8,115.8,0,0,0,605.8,113.23ZM491.87,199.82a66.37,66.37,0,0,1-66.37-66.37c0-.41,0-.82,0-1.22s0-.54,0-.8,0-.78,0-1.16v-.08c0-.1,0-.19,0-.28,0-.53.06-1,.1-1.57,0-.28.05-.55.07-.81s.05-.56.08-.82c0-.09,0-.17,0-.26,0-.27.06-.54.1-.81s.05-.43.08-.65c0-.5.13-1,.2-1.49a2,2,0,0,1,0-.24l.12-.76c0-.26.08-.51.13-.76s.14-.8.22-1.19c0-.07,0-.14.05-.21.05-.29.11-.57.17-.85s.07-.32.1-.47.13-.58.21-.87.13-.55.19-.82a2.1,2.1,0,0,0,.06-.24c.07-.29.15-.58.23-.88.17-.64.36-1.28.55-1.92.11-.37.22-.73.34-1.1s.22-.69.34-1,.14-.41.2-.62.2-.56.31-.85l0-.07c.18-.51.37-1,.58-1.51s.39-1,.61-1.5.38-.9.58-1.34c.28-.62.56-1.23.87-1.84.18-.4.38-.79.58-1.19l0,0a0,0,0,0,0,0,0c.23-.47.48-.92.72-1.37h0l.72-1.3c.31-.53.62-1.06.94-1.58.17-.29.36-.59.55-.88s.28-.45.43-.67a.13.13,0,0,1,0,0c.45-.69.9-1.38,1.38-2l.27-.37c.23-.34.47-.67.72-1l.48-.63.4-.51.23-.3.33-.42.57-.7.24-.29c.27-.32.53-.64.8-1s.75-.87,1.14-1.29l1.09-1.17c.4-.42.81-.84,1.23-1.25l.15-.15q.42-.44.87-.84c.38-.37.77-.74,1.17-1.09q1.75-1.62,3.65-3.09c.28-.22.56-.44.85-.65.47-.36.95-.72,1.43-1.06.21-.16.44-.32.66-.47s.64-.46,1-.67l.86-.57.06,0,1.37-.87c.41-.25.81-.5,1.23-.74l.22-.13.68-.38c.12-.07.24-.15.37-.21.29-.17.59-.33.89-.49q1.1-.6,2.22-1.14l.78-.38.71-.32c.23-.12.47-.23.71-.33.79-.35,1.58-.68,2.38-1,.27-.12.55-.22.84-.33l.32-.13.16,0,.92-.34,1.22-.43.89-.29.81-.25.52-.15L474,69.5c1.47-.41,3-.77,4.46-1.08.51-.11,1-.2,1.54-.3l1.39-.23,1.08-.16c.69-.1,1.38-.19,2.07-.26l.84-.09,1.06-.09c.43,0,.87-.06,1.3-.09l1,0c.47,0,.95,0,1.44-.06l1.71,0a66.34,66.34,0,0,1,66.37,66.38c0,.52,0,1.05,0,1.58,0,.26,0,.51,0,.77s0,.7,0,1a.15.15,0,0,1,0,.07c0,.52-.06,1-.09,1.56s-.08.94-.13,1.4c0,.25,0,.49-.07.74,0,.43-.09.86-.15,1.28s-.11.84-.18,1.25c0,.26-.07.52-.11.78-.07.42-.13.84-.21,1.25h0c-.1.54-.2,1.07-.31,1.6a.11.11,0,0,0,0,.05c-.08.41-.17.81-.26,1.22l-.15.63c-.11.48-.22.95-.35,1.43-.07.29-.15.58-.23.87s-.15.56-.24.85c-.14.48-.28,1-.43,1.45a4.72,4.72,0,0,1-.18.53c-.09.31-.19.61-.3.91q-.25.78-.54,1.56c-.18.5-.38,1-.57,1.49-.35.9-.72,1.78-1.11,2.65-.12.26-.23.52-.36.78s-.27.58-.4.86l-.16.32c-.19.4-.38.8-.59,1.19a1.74,1.74,0,0,1-.1.19c-.16.33-.33.65-.5,1s-.28.53-.42.78l-.22.39c-.15.28-.31.55-.47.82s-.45.76-.68,1.14-.39.65-.59,1l-.39.61-.74,1.11-.77,1.11q-.52.75-1.08,1.5c-.32.43-.64.85-1,1.26-.71.91-1.44,1.8-2.2,2.66L541,178l-.13.14c-.28.3-.56.61-.85.91-.79.85-1.62,1.68-2.48,2.48l-1,.95-.13.11c-.31.29-.61.56-.92.83l-.31.26-1.12.95-1.24,1-1.27,1c-.42.32-.85.63-1.29.94s-.87.61-1.31.91-.74.5-1.12.74l-.85.54c-.6.37-1.21.74-1.83,1.1-.31.19-.63.37-.95.54l-.3.18-1.07.57-.26.14-1.08.55-.29.14c-.3.16-.62.31-.93.45l-.56.26c-.34.17-.7.33-1.06.48l-1.2.53-1.91.76-1.06.4-1.43.49c-1,.33-1.92.62-2.9.91l-1.46.4-1.48.37-1.5.33-1.23.25-.48.09-1.17.21-.21,0c-.46.07-.92.15-1.38.21l-.24,0-1.32.16h-.11l-1.53.16h0c-.25,0-.51.05-.76.06l-.14,0-.71,0h-.18l-.63,0c-.46,0-.93,0-1.4.06l-.54,0C493.08,199.81,492.48,199.82,491.87,199.82Z"/></g></g></svg>