<svg xmlns="http://www.w3.org/2000/svg" viewBox="0 0 1570.88 836.81"><defs><style>.cls-1{fill:#f28f8f;}.cls-2{fill:#9e8ff2;}.cls-3{fill:#b3f48e;}.cls-4,.cls-6{fill:#fff;}.cls-4{stroke:#000;stroke-miterlimit:10;}.cls-5{fill:#6ed9f9;}</style></defs><g id="Layer_2" data-name="Layer 2"><g id="Layer_1-2" data-name="Layer 1"><g id="m"><path class="cls-1" d="M617.64,86.09V750.77a83.82,83.82,0,1,1-167.64,0V300.67L392.64,362.9V750.77a83.82,83.82,0,1,1-167.64,0v-395l-57.36-61.28V750.77A83.82,83.82,0,1,1,0,750.77V86.06A83.38,83.38,0,0,1,14.54,38.87a83.84,83.84,0,0,1,132-12.33L225,110.4l86.85,92.79,80.79-87.64,78.92-85.61.1-.11.53-.58c.44-.48.9-1,1.36-1.44l0,0,.51-.52c.31-.33.63-.64.95-.95l.57-.56.06-.06c.3-.29.6-.58.91-.86s.82-.77,1.24-1.14l.1-.09,1.06-.93c.5-.44,1-.87,1.53-1.3s1-.84,1.55-1.24,1.08-.84,1.62-1.25,1.08-.8,1.63-1.19L487,16.55c.53-.36,1.07-.71,1.61-1.06a.26.26,0,0,1,.11-.07l1.56-1,.23-.14,1.48-.87.22-.13c.56-.32,1.13-.63,1.7-.94l1.61-.86c.52-.27,1-.54,1.59-.8l1-.47,1.15-.54.44-.19,1.55-.67,1.62-.67c.4-.16.8-.32,1.21-.46s.89-.34,1.34-.5.91-.32,1.36-.48c.67-.23,1.35-.45,2-.66l1-.31q.51-.17,1-.3l2.05-.56h0c1.06-.27,2.13-.52,3.21-.76l1.43-.29,1.56-.29c.95-.17,1.9-.32,2.86-.46l1.33-.18c.53-.06,1.05-.13,1.58-.18l1.29-.13.54,0,1.31-.1,1.61-.09c1.41-.07,2.83-.11,4.24-.11.72,0,1.43,0,2.14,0s1.21,0,1.81.07l1,.05,1.11.07,1,.08.91.08,1.53.16,1.89.24c.63.08,1.26.17,1.89.28s1.26.2,1.89.32c1.24.23,2.49.49,3.73.77l1.88.46c.62.16,1.24.32,1.86.5s1.23.35,1.84.54l.84.26,1,.32.81.27.81.29.37.13c.55.19,1.1.4,1.65.61l.81.31.81.33c.68.27,1.35.56,2,.85l0,0h0c.51.22,1,.46,1.52.69h0l.31.14,1.12.54c.44.21.88.43,1.31.66l.27.13c.57.29,1.13.59,1.69.9l1.38.76c.59.34,1.19.68,1.77,1s.92.55,1.37.84l1,.64,0,0c.75.49,1.5,1,2.24,1.51l1.14.8,1.36,1,1.26,1q.66.51,1.32,1.05l.76.63c.69.57,1.37,1.16,2.05,1.76l.15.13,1,.91c.48.44,1,.9,1.44,1.36l0,0c.17.17.35.33.52.51s.64.63.95.95l.56.57.06.06c.29.3.58.6.86.91s.77.82,1.14,1.24l.09.1.93,1.06c.44.5.87,1,1.3,1.53s.85,1,1.26,1.57.83,1.06,1.23,1.6.8,1.08,1.19,1.63.77,1.1,1.15,1.66.74,1.12,1.11,1.68.72,1.14,1.07,1.72.69,1.15,1,1.74c.66,1.16,1.3,2.33,1.91,3.52.25.47.48,1,.71,1.43l.51,1,.1.22.15.33c.18.38.35.76.52,1.15l0,.09q.3.66.57,1.32c.23.54.45,1.08.67,1.62,0,0,0,0,0,0l.44,1.17c.13.33.25.65.37,1q.71,1.93,1.32,3.9h0c.41,1.31.78,2.63,1.12,3.95a0,0,0,0,0,0,0c.22.86.42,1.72.61,2.58s.37,1.73.54,2.6.31,1.73.45,2.6.27,1.75.38,2.62c.06.53.13,1.06.18,1.58s.09.86.13,1.29c0,.18,0,.36.05.53,0,.45.07.9.1,1.35l.09,1.58C617.6,83.27,617.64,84.68,617.64,86.09Z"/></g><g id="i"><path class="cls-2" d="M842.64,86.06a83.82,83.82,0,1,1-24.55-59.27A83.55,83.55,0,0,1,842.64,86.06Z"/><path class="cls-2" d="M675,225.77h83.82a83.82,83.82,0,0,1,83.82,83.82V736.47a83.82,83.82,0,0,1-83.82,83.82h0A83.82,83.82,0,0,1,675,736.47V225.77A0,0,0,0,1,675,225.77Z"/></g><g id="i-2" data-name="i"><path class="cls-2" d="M1570.88,102.58a83.82,83.82,0,1,1-24.55-59.27A83.55,83.55,0,0,1,1570.88,102.58Z"/><path class="cls-2" d="M1487.06,242.29h83.82a0,0,0,0,1,0,0V753a83.82,83.82,0,0,1-83.82,83.82h0A83.82,83.82,0,0,1,1403.24,753V326.11a83.82,83.82,0,0,1,83.82-83.82Z"/></g><g id="R"><path class="cls-3" d="M1243,465.47h83.82a0,0,0,0,1,0,0V701.57A83.82,83.82,0,0,1,1243,785.39h0a83.82,83.82,0,0,1-83.82-83.82V549.29A83.82,83.82,0,0,1,1243,465.47Z"/><path class="cls-4" d="M1108.78,424.26c1.35-.39,2.68-.8,4-1.25C1111.45,423.46,1110.12,423.88,1108.78,424.26Z"/><path class="cls-5" d="M1083.54,176.84a159.6,159.6,0,0,0-156.92,188v386a83.82,83.82,0,1,0,167.64,0V495.4a159.46,159.46,0,0,0-10.72-318.56ZM1175,338.49q0,.52,0,1.05c0,.49,0,1-.06,1.45a.31.31,0,0,1,0,.1c0,.72-.08,1.44-.13,2.15s-.1,1.29-.17,1.93c0,.34-.06.68-.1,1-.06.59-.13,1.18-.21,1.76s-.15,1.16-.24,1.73c0,.36-.1.72-.16,1.07-.09.58-.18,1.16-.29,1.73h0c-.13.74-.27,1.48-.42,2.21,0,0,0,.05,0,.07-.11.56-.23,1.11-.36,1.67-.06.29-.13.58-.2.88-.15.66-.31,1.31-.48,2-.1.39-.21.79-.32,1.19s-.21.78-.33,1.17c-.19.67-.39,1.33-.6,2-.07.25-.15.5-.24.74-.13.42-.27.84-.41,1.25-.24.72-.49,1.44-.75,2.15s-.52,1.38-.79,2.06c-.48,1.23-1,2.45-1.53,3.65-.16.36-.32.72-.49,1.07s-.37.8-.56,1.19l-.21.44c-.26.55-.53,1.1-.82,1.64l-.13.26c-.22.45-.46.89-.7,1.33s-.38.72-.58,1.07q-.15.28-.3.54c-.21.38-.42.76-.65,1.13-.3.53-.61,1.05-.93,1.57s-.54.89-.82,1.33l-.54.85q-.5.76-1,1.53c-.34.51-.69,1-1.05,1.52q-.74,1-1.5,2.07c-.44.59-.88,1.17-1.34,1.74-1,1.25-2,2.48-3,3.67-.38.44-.77.88-1.16,1.31l-.18.19c-.38.42-.76.84-1.17,1.25-1.09,1.17-2.23,2.32-3.41,3.42-.46.45-.93.88-1.4,1.31l-.18.16c-.42.39-.84.77-1.27,1.14l-.42.36-1.55,1.31c-.56.47-1.13.92-1.71,1.37s-1.15.9-1.74,1.34l-1.78,1.3c-.6.42-1.2.84-1.81,1.25s-1,.69-1.54,1l-1.17.74c-.83.52-1.67,1-2.52,1.52-.43.26-.87.51-1.31.75l-.42.24-1.48.79-.35.19-1.49.76-.4.2-1.28.62-.77.36c-.48.23-1,.45-1.46.66l-1.66.72c-.87.36-1.74.71-2.63,1l-1.47.55-2,.68c-1.31.45-2.64.86-4,1.25l-2,.55q-1,.27-2,.51c-.68.16-1.37.32-2.06.46l-1.7.35-.66.12-1.62.29-.28,0-1.91.29-.32.05-1.83.23h-.15c-.7.08-1.4.16-2.1.22h0l-1,.09-.2,0-1,.07h-.25q-.43,0-.87.06c-.64,0-1.28.07-1.93.09l-.75,0c-.83,0-1.66,0-2.5,0a91.49,91.49,0,0,1-91.49-91.49c0-.56,0-1.12,0-1.68,0-.37,0-.74,0-1.1,0-.53,0-1.07.06-1.6v-.11c0-.13,0-.26,0-.38,0-.73.08-1.45.14-2.17,0-.38.06-.75.09-1.12s.07-.76.11-1.13l0-.35q.11-1,.24-2c.08-.69.18-1.38.28-2.06,0-.11,0-.22,0-.33.06-.35.11-.7.17-1.05s.11-.7.18-1c.09-.55.19-1.1.31-1.64l.06-.28c.07-.4.15-.79.24-1.18,0-.22.09-.44.14-.65.09-.4.18-.8.28-1.2l.27-1.13c0-.11.06-.21.08-.32.1-.41.21-.81.32-1.22.23-.88.49-1.76.75-2.64.15-.51.31-1,.47-1.52s.31-.95.47-1.42c.09-.29.19-.57.28-.85l.42-1.17a.3.3,0,0,0,0-.1c.26-.7.52-1.4.8-2.09s.55-1.38.84-2.06.53-1.24.81-1.85c.38-.85.77-1.69,1.19-2.53.26-.55.53-1.1.81-1.64,0,0,0,0,0,0l0,0c.32-.64.66-1.26,1-1.88v0c.33-.6.66-1.2,1-1.79s.85-1.46,1.29-2.17c.24-.41.5-.82.76-1.22s.38-.62.59-.92a.16.16,0,0,1,0-.07c.62-1,1.25-1.9,1.91-2.83l.37-.51c.32-.46.65-.92,1-1.37l.66-.87.55-.71c.1-.14.21-.27.32-.41l.45-.58c.26-.33.53-.65.79-1l.33-.4c.37-.44.73-.88,1.11-1.31.51-.6,1-1.19,1.57-1.77s1-1.08,1.5-1.61,1.12-1.16,1.69-1.73l.21-.2q.59-.6,1.2-1.17c.53-.51,1.06-1,1.61-1.5q2.43-2.22,5-4.25.59-.46,1.17-.9c.65-.5,1.31-1,2-1.46l.92-.65c.44-.32.88-.63,1.34-.93l1.18-.78.08-.05q.93-.62,1.89-1.2c.56-.35,1.12-.69,1.69-1l.31-.18.93-.53.51-.29,1.23-.67c1-.55,2-1.07,3.06-1.57l1.08-.52c.32-.16.65-.31,1-.45s.66-.31,1-.45c1.08-.49,2.17-.94,3.27-1.38.38-.16.77-.31,1.16-.45l.45-.18.22-.08,1.26-.46,1.69-.59,1.22-.4,1.12-.35.71-.21c.49-.15,1-.29,1.46-.42q3-.85,6.16-1.49c.7-.15,1.41-.28,2.12-.41l1.91-.32,1.49-.22q1.43-.21,2.85-.36l1.16-.12,1.47-.13c.59-.05,1.19-.09,1.78-.12.44,0,.87-.06,1.31-.07.66,0,1.32-.06,2-.08s1.57,0,2.36,0A91.49,91.49,0,0,1,1175,336.3Q1175,337.4,1175,338.49Z"/><path class="cls-6" d="M1175,336.3q0,1.09,0,2.19,0,.52,0,1.05c0,.49,0,1-.06,1.45a.31.31,0,0,1,0,.1c0,.72-.08,1.44-.13,2.15s-.1,1.29-.17,1.93c0,.34-.06.68-.1,1-.06.59-.13,1.18-.21,1.76s-.15,1.16-.24,1.73c0,.36-.1.72-.16,1.07-.09.58-.18,1.16-.29,1.73h0c-.13.74-.27,1.48-.42,2.21,0,0,0,.05,0,.07-.11.56-.23,1.11-.36,1.67-.06.29-.13.58-.2.88-.15.66-.31,1.31-.48,2-.1.39-.21.79-.32,1.19s-.21.78-.33,1.17c-.19.67-.39,1.33-.6,2-.07.25-.15.5-.24.74-.13.42-.27.84-.41,1.25-.24.72-.49,1.44-.75,2.15s-.52,1.38-.79,2.06c-.48,1.23-1,2.45-1.53,3.65-.16.36-.32.72-.49,1.07s-.37.8-.56,1.19l-.21.44c-.26.55-.53,1.1-.82,1.64l-.13.26c-.22.45-.46.89-.7,1.33s-.38.72-.58,1.07q-.15.28-.3.54c-.21.38-.42.76-.65,1.13-.3.53-.61,1.05-.93,1.57s-.54.89-.82,1.33l-.54.85q-.5.76-1,1.53c-.34.51-.69,1-1.05,1.52q-.74,1-1.5,2.07c-.44.59-.88,1.17-1.34,1.74-1,1.25-2,2.48-3,3.67-.38.44-.77.88-1.16,1.31l-.18.19c-.38.42-.76.84-1.17,1.25-1.09,1.17-2.23,2.32-3.41,3.42-.46.45-.93.88-1.4,1.31l-.18.16c-.42.39-.84.77-1.27,1.14l-.42.36-1.55,1.31c-.56.47-1.13.92-1.71,1.37s-1.15.9-1.74,1.34l-1.78,1.3c-.6.42-1.2.84-1.81,1.25s-1,.69-1.54,1l-1.17.74c-.83.52-1.67,1-2.52,1.52-.43.26-.87.51-1.31.75l-.42.24-1.48.79-.35.19-1.49.76-.4.2-1.28.62-.77.36c-.48.23-1,.45-1.46.66l-1.66.72c-.87.36-1.74.71-2.63,1l-1.47.55-2,.68c-1.31.45-2.64.86-4,1.25l-2,.55q-1,.27-2,.51c-.68.16-1.37.32-2.06.46l-1.7.35-.66.12-1.62.29-.28,0-1.91.29-.32.05-1.83.23h-.15c-.7.08-1.4.16-2.1.22h0l-1,.09-.2,0-1,.07h-.25q-.43,0-.87.06c-.64,0-1.28.07-1.93.09l-.75,0c-.83,0-1.66,0-2.5,0a91.49,91.49,0,0,1-91.49-91.49c0-.56,0-1.12,0-1.68,0-.37,0-.74,0-1.1,0-.53,0-1.07.06-1.6v-.11c0-.13,0-.26,0-.38,0-.73.08-1.45.14-2.17,0-.38.06-.75.09-1.12s.07-.76.11-1.13l0-.35q.11-1,.24-2c.08-.69.18-1.38.28-2.06,0-.11,0-.22,0-.33.06-.35.11-.7.17-1.05s.11-.7.18-1c.1-.55.2-1.1.31-1.64l.06-.28c.07-.4.15-.79.24-1.18,0-.22.09-.44.14-.65.09-.4.18-.8.28-1.2l.27-1.13c0-.11.06-.21.08-.32.1-.41.21-.81.32-1.22.23-.88.49-1.76.75-2.64.15-.51.31-1,.47-1.52s.31-.95.47-1.42c.09-.29.19-.57.28-.85l.42-1.17a.3.3,0,0,0,0-.1c.26-.7.52-1.4.8-2.09s.55-1.38.84-2.06.53-1.24.81-1.85c.38-.85.77-1.69,1.19-2.53.26-.55.53-1.1.81-1.64,0,0,0,0,0,0l0,0c.32-.64.66-1.26,1-1.88v0c.33-.6.66-1.2,1-1.79s.85-1.46,1.29-2.17c.24-.41.5-.82.76-1.22s.38-.62.59-.92a.16.16,0,0,1,0-.07c.62-1,1.25-1.9,1.91-2.83l.37-.51c.32-.46.65-.92,1-1.37l.66-.87c.18-.24.36-.48.55-.71s.21-.27.32-.41l.45-.58c.26-.33.53-.65.79-1l.33-.4c.37-.44.73-.88,1.11-1.31.51-.6,1-1.19,1.57-1.77s1-1.08,1.5-1.61,1.12-1.16,1.69-1.73l.21-.2q.59-.6,1.2-1.17c.53-.51,1.06-1,1.61-1.5q2.43-2.22,5-4.25.59-.46,1.17-.9c.65-.5,1.31-1,2-1.46l.92-.65c.44-.32.88-.63,1.34-.93l1.18-.78.08-.05q.93-.62,1.89-1.2c.56-.35,1.12-.69,1.69-1l.31-.18.93-.53.51-.29,1.23-.67c1-.55,2-1.07,3.06-1.57l1.08-.52c.32-.16.65-.31,1-.45s.66-.31,1-.45c1.08-.49,2.17-.94,3.27-1.38.38-.16.77-.31,1.16-.45l.45-.18.22-.08,1.26-.46,1.69-.59,1.22-.4,1.12-.35.71-.21c.49-.15,1-.29,1.46-.42q3-.85,6.16-1.49c.7-.15,1.41-.28,2.12-.41l1.91-.32,1.49-.22q1.43-.21,2.85-.36l1.16-.12,1.47-.13c.59-.05,1.19-.09,1.78-.12.44,0,.87-.06,1.31-.07.66,0,1.32-.06,2-.08s1.57,0,2.36,0A91.49,91.49,0,0,1,1175,336.3Z"/></g></g></g></svg>